<svg width="55" height="86" viewBox="0 0 55 86" fill="none" xmlns="http://www.w3.org/2000/svg">
<path d="M47 0H33.7927L6 26.4423L33.7927 53H47L19.2073 26.4423L47 0Z" fill="black"/>
<path d="M2.01513 75.462C2.24046 74.9853 2.59579 74.591 3.08113 74.279C3.57513 73.9583 4.16013 73.798 4.83613 73.798C5.47746 73.798 6.05379 73.9497 6.56513 74.253C7.08513 74.5477 7.48813 74.9723 7.77413 75.527C8.06879 76.073 8.21613 76.71 8.21613 77.438C8.21613 78.166 8.06879 78.8073 7.77413 79.362C7.48813 79.9167 7.08513 80.3457 6.56513 80.649C6.05379 80.9523 5.47746 81.104 4.83613 81.104C4.16879 81.104 3.58813 80.948 3.09413 80.636C2.60013 80.3153 2.24046 79.9167 2.01513 79.44V84.354H1.11813V73.902H2.01513V75.462ZM7.29313 77.438C7.29313 76.8487 7.17613 76.3417 6.94212 75.917C6.71679 75.4837 6.40479 75.1543 6.00613 74.929C5.60746 74.7037 5.15679 74.591 4.65413 74.591C4.16879 74.591 3.72246 74.708 3.31513 74.942C2.91646 75.176 2.60013 75.5097 2.36613 75.943C2.13213 76.3763 2.01513 76.879 2.01513 77.451C2.01513 78.023 2.13213 78.5257 2.36613 78.959C2.60013 79.3923 2.91646 79.726 3.31513 79.96C3.72246 80.194 4.16879 80.311 4.65413 80.311C5.15679 80.311 5.60746 80.1983 6.00613 79.973C6.40479 79.739 6.71679 79.4053 6.94212 78.972C7.17613 78.53 7.29313 78.0187 7.29313 77.438ZM10.8006 75.163C10.9999 74.721 11.3033 74.3787 11.7106 74.136C12.1266 73.8933 12.6336 73.772 13.2316 73.772V74.721H12.9846C12.3259 74.721 11.7973 74.8987 11.3986 75.254C10.9999 75.6093 10.8006 76.203 10.8006 77.035V81H9.89059V73.902H10.8006V75.163ZM21.0225 77.087C21.0225 77.399 21.0139 77.6373 20.9965 77.802H15.1075C15.1335 78.3393 15.2635 78.7987 15.4975 79.18C15.7315 79.5613 16.0392 79.8517 16.4205 80.051C16.8019 80.2417 17.2179 80.337 17.6685 80.337C18.2579 80.337 18.7519 80.194 19.1505 79.908C19.5579 79.622 19.8265 79.2363 19.9565 78.751H20.9185C20.7452 79.4443 20.3725 80.012 19.8005 80.454C19.2372 80.8873 18.5265 81.104 17.6685 81.104C17.0012 81.104 16.4032 80.9567 15.8745 80.662C15.3459 80.3587 14.9299 79.934 14.6265 79.388C14.3319 78.8333 14.1845 78.1877 14.1845 77.451C14.1845 76.7143 14.3319 76.0687 14.6265 75.514C14.9212 74.9593 15.3329 74.5347 15.8615 74.24C16.3902 73.9453 16.9925 73.798 17.6685 73.798C18.3445 73.798 18.9339 73.9453 19.4365 74.24C19.9479 74.5347 20.3379 74.9333 20.6065 75.436C20.8839 75.93 21.0225 76.4803 21.0225 77.087ZM20.0995 77.061C20.1082 76.5323 19.9999 76.0817 19.7745 75.709C19.5579 75.3363 19.2589 75.0547 18.8775 74.864C18.4962 74.6733 18.0802 74.578 17.6295 74.578C16.9535 74.578 16.3772 74.7947 15.9005 75.228C15.4239 75.6613 15.1595 76.2723 15.1075 77.061H20.0995ZM25.2095 80.116L27.6015 73.902H28.5635L25.7165 81H24.6895L21.8425 73.902H22.8175L25.2095 80.116ZM30.2518 72.563C30.0698 72.563 29.9138 72.498 29.7838 72.368C29.6538 72.238 29.5888 72.0777 29.5888 71.887C29.5888 71.6963 29.6538 71.5403 29.7838 71.419C29.9138 71.289 30.0698 71.224 30.2518 71.224C30.4338 71.224 30.5898 71.289 30.7198 71.419C30.8498 71.5403 30.9148 71.6963 30.9148 71.887C30.9148 72.0777 30.8498 72.238 30.7198 72.368C30.5898 72.498 30.4338 72.563 30.2518 72.563ZM30.7068 73.902V81H29.7968V73.902H30.7068ZM35.8745 81.104C35.2072 81.104 34.6049 80.9567 34.0675 80.662C33.5389 80.3587 33.1185 79.934 32.8065 79.388C32.5032 78.8333 32.3515 78.1877 32.3515 77.451C32.3515 76.7143 32.5075 76.073 32.8195 75.527C33.1315 74.9723 33.5562 74.5477 34.0935 74.253C34.6309 73.9497 35.2332 73.798 35.9005 73.798C36.5679 73.798 37.1702 73.9497 37.7075 74.253C38.2535 74.5477 38.6782 74.9723 38.9815 75.527C39.2935 76.073 39.4495 76.7143 39.4495 77.451C39.4495 78.179 39.2935 78.8203 38.9815 79.375C38.6695 79.9297 38.2405 80.3587 37.6945 80.662C37.1485 80.9567 36.5419 81.104 35.8745 81.104ZM35.8745 80.311C36.3425 80.311 36.7759 80.207 37.1745 79.999C37.5732 79.7823 37.8939 79.4617 38.1365 79.037C38.3879 78.6037 38.5135 78.075 38.5135 77.451C38.5135 76.827 38.3922 76.3027 38.1495 75.878C37.9069 75.4447 37.5862 75.124 37.1875 74.916C36.7889 74.6993 36.3555 74.591 35.8875 74.591C35.4195 74.591 34.9862 74.6993 34.5875 74.916C34.1889 75.124 33.8682 75.4447 33.6255 75.878C33.3915 76.3027 33.2745 76.827 33.2745 77.451C33.2745 78.075 33.3915 78.6037 33.6255 79.037C33.8682 79.4617 34.1845 79.7823 34.5745 79.999C34.9732 80.207 35.4065 80.311 35.8745 80.311ZM47.2574 73.902V81H46.3474V79.752C46.1394 80.194 45.8187 80.532 45.3854 80.766C44.952 81 44.4667 81.117 43.9294 81.117C43.08 81.117 42.3867 80.857 41.8494 80.337C41.312 79.8083 41.0434 79.0457 41.0434 78.049V73.902H41.9404V77.945C41.9404 78.7163 42.131 79.3057 42.5124 79.713C42.9024 80.1203 43.431 80.324 44.0984 80.324C44.783 80.324 45.329 80.1073 45.7364 79.674C46.1437 79.2407 46.3474 78.6037 46.3474 77.763V73.902H47.2574ZM51.7789 81.104C50.9643 81.104 50.2969 80.9177 49.7769 80.545C49.2656 80.1637 48.9796 79.648 48.9189 78.998H49.8549C49.8983 79.3967 50.0846 79.7217 50.4139 79.973C50.7519 80.2157 51.2026 80.337 51.7659 80.337C52.2599 80.337 52.6456 80.22 52.9229 79.986C53.2089 79.752 53.3519 79.4617 53.3519 79.115C53.3519 78.8723 53.2739 78.673 53.1179 78.517C52.9619 78.361 52.7626 78.2397 52.5199 78.153C52.2859 78.0577 51.9653 77.958 51.5579 77.854C51.0293 77.7153 50.6003 77.5767 50.2709 77.438C49.9416 77.2993 49.6599 77.0957 49.4259 76.827C49.2006 76.5497 49.0879 76.1813 49.0879 75.722C49.0879 75.3753 49.1919 75.0547 49.3999 74.76C49.6079 74.4653 49.9026 74.2313 50.2839 74.058C50.6653 73.8847 51.0986 73.798 51.5839 73.798C52.3466 73.798 52.9619 73.993 53.4299 74.383C53.8979 74.7643 54.1493 75.293 54.1839 75.969H53.2739C53.2479 75.553 53.0833 75.2193 52.7799 74.968C52.4853 74.708 52.0779 74.578 51.5579 74.578C51.0986 74.578 50.7259 74.6863 50.4399 74.903C50.1539 75.1197 50.0109 75.3883 50.0109 75.709C50.0109 75.9863 50.0933 76.216 50.2579 76.398C50.4313 76.5713 50.6436 76.71 50.8949 76.814C51.1463 76.9093 51.4843 77.0177 51.9089 77.139C52.4203 77.2777 52.8276 77.412 53.1309 77.542C53.4343 77.672 53.6943 77.8627 53.9109 78.114C54.1276 78.3653 54.2403 78.699 54.2489 79.115C54.2489 79.4963 54.1449 79.8387 53.9369 80.142C53.7289 80.4367 53.4386 80.6707 53.0659 80.844C52.6933 81.0173 52.2643 81.104 51.7789 81.104Z" fill="#818181"/>
</svg>
