<svg width="42" height="42" viewBox="0 0 42 42" fill="none" xmlns="http://www.w3.org/2000/svg">
<path d="M13.5 12.75C13.5 13.3468 13.2629 13.9191 12.841 14.341C12.419 14.763 11.8467 15 11.25 15C10.6533 15 10.081 14.763 9.65901 14.341C9.23705 13.9191 9 13.3468 9 12.75C9 12.1533 9.23705 11.581 9.65901 11.1591C10.081 10.7371 10.6533 10.5 11.25 10.5C11.8467 10.5 12.419 10.7371 12.841 11.1591C13.2629 11.581 13.5 12.1533 13.5 12.75Z" fill="#C8C8C8"/>
<path d="M11.25 24C11.8467 24 12.419 23.763 12.841 23.341C13.2629 22.9191 13.5 22.3468 13.5 21.75C13.5 21.1533 13.2629 20.581 12.841 20.159C12.419 19.7371 11.8467 19.5 11.25 19.5C10.6533 19.5 10.081 19.7371 9.65901 20.159C9.23705 20.581 9 21.1533 9 21.75C9 22.3468 9.23705 22.9191 9.65901 23.341C10.081 23.763 10.6533 24 11.25 24Z" fill="#C8C8C8"/>
<path d="M13.5 30.75C13.5 31.3468 13.2629 31.9191 12.841 32.341C12.419 32.763 11.8467 33 11.25 33C10.6533 33 10.081 32.763 9.65901 32.341C9.23705 31.9191 9 31.3468 9 30.75C9 30.1533 9.23705 29.581 9.65901 29.159C10.081 28.7371 10.6533 28.5 11.25 28.5C11.8467 28.5 12.419 28.7371 12.841 29.159C13.2629 29.581 13.5 30.1533 13.5 30.75Z" fill="#C8C8C8"/>
<path d="M19.5 12C19.1022 12 18.7206 12.1581 18.4393 12.4394C18.158 12.7207 18 13.1022 18 13.5C18 13.8979 18.158 14.2794 18.4393 14.5607C18.7206 14.842 19.1022 15 19.5 15H31.5C31.8978 15 32.2794 14.842 32.5607 14.5607C32.842 14.2794 33 13.8979 33 13.5C33 13.1022 32.842 12.7207 32.5607 12.4394C32.2794 12.1581 31.8978 12 31.5 12H19.5Z" fill="#C8C8C8"/>
<path d="M18 22.5C18 22.1022 18.158 21.7207 18.4393 21.4394C18.7206 21.1581 19.1022 21 19.5 21H31.5C31.8978 21 32.2794 21.1581 32.5607 21.4394C32.842 21.7207 33 22.1022 33 22.5C33 22.8979 32.842 23.2794 32.5607 23.5607C32.2794 23.842 31.8978 24 31.5 24H19.5C19.1022 24 18.7206 23.842 18.4393 23.5607C18.158 23.2794 18 22.8979 18 22.5Z" fill="#C8C8C8"/>
<path d="M19.5 30C19.1022 30 18.7206 30.1581 18.4393 30.4394C18.158 30.7207 18 31.1022 18 31.5C18 31.8979 18.158 32.2794 18.4393 32.5607C18.7206 32.842 19.1022 33 19.5 33H31.5C31.8978 33 32.2794 32.842 32.5607 32.5607C32.842 32.2794 33 31.8979 33 31.5C33 31.1022 32.842 30.7207 32.5607 30.4394C32.2794 30.1581 31.8978 30 31.5 30H19.5Z" fill="#C8C8C8"/>
<path d="M0 6C0 4.4087 0.632141 2.88258 1.75736 1.75736C2.88258 0.632141 4.4087 0 6 0H36C37.5913 0 39.1174 0.632141 40.2426 1.75736C41.3679 2.88258 42 4.4087 42 6V36C42 37.5913 41.3679 39.1174 40.2426 40.2426C39.1174 41.3679 37.5913 42 36 42H6C4.4087 42 2.88258 41.3679 1.75736 40.2426C0.632141 39.1174 0 37.5913 0 36V6ZM6 3C5.20435 3 4.44129 3.31607 3.87868 3.87868C3.31607 4.44129 3 5.20435 3 6V36C3 36.7956 3.31607 37.5587 3.87868 38.1213C4.44129 38.6839 5.20435 39 6 39H36C36.7956 39 37.5587 38.6839 38.1213 38.1213C38.6839 37.5587 39 36.7956 39 36V6C39 5.20435 38.6839 4.44129 38.1213 3.87868C37.5587 3.31607 36.7956 3 36 3H6Z" fill="#C8C8C8"/>
</svg>
