<svg width="43" height="36" viewBox="0 0 43 36" fill="none" xmlns="http://www.w3.org/2000/svg">
<path d="M38.3438 5.86717H31.8359L30.2855 1.52225C30.1784 1.22494 29.9821 0.967946 29.7235 0.786378C29.4648 0.604809 29.1564 0.507518 28.8404 0.507798H14.1596C13.5136 0.507798 12.9346 0.914536 12.7192 1.52225L11.1641 5.86717H4.65625C2.54121 5.86717 0.828125 7.58026 0.828125 9.6953V31.5156C0.828125 33.6306 2.54121 35.3437 4.65625 35.3437H38.3438C40.4588 35.3437 42.1719 33.6306 42.1719 31.5156V9.6953C42.1719 7.58026 40.4588 5.86717 38.3438 5.86717ZM38.7266 31.5156C38.7266 31.7262 38.5543 31.8984 38.3438 31.8984H4.65625C4.4457 31.8984 4.27344 31.7262 4.27344 31.5156V9.6953C4.27344 9.48475 4.4457 9.31249 4.65625 9.31249H13.5901L14.4084 7.02518L15.5042 3.95311H27.491L28.5868 7.02518L29.4051 9.31249H38.3438C38.5543 9.31249 38.7266 9.48475 38.7266 9.6953V31.5156ZM21.5 12.375C17.2699 12.375 13.8438 15.8012 13.8438 20.0312C13.8438 24.2613 17.2699 27.6875 21.5 27.6875C25.7301 27.6875 29.1562 24.2613 29.1562 20.0312C29.1562 15.8012 25.7301 12.375 21.5 12.375ZM21.5 24.625C18.9639 24.625 16.9062 22.5674 16.9062 20.0312C16.9062 17.4951 18.9639 15.4375 21.5 15.4375C24.0361 15.4375 26.0938 17.4951 26.0938 20.0312C26.0938 22.5674 24.0361 24.625 21.5 24.625Z" fill="#C8C8C8"/>
</svg>
