<svg width="138" height="52" viewBox="0 0 138 52" fill="none" xmlns="http://www.w3.org/2000/svg">
<rect x="1.5" y="1.5" width="135" height="49" rx="13.5" fill="#FDF8F4" stroke="url(#paint0_linear)" stroke-width="3"/>
<path d="M34.3063 17.2H41.1463C42.9223 17.2 44.4903 17.56 45.8503 18.28C47.2103 18.984 48.2663 19.976 49.0183 21.256C49.7703 22.52 50.1463 23.968 50.1463 25.6C50.1463 27.232 49.7703 28.688 49.0183 29.968C48.2663 31.232 47.2103 32.224 45.8503 32.944C44.4903 33.648 42.9223 34 41.1463 34H34.3063V17.2ZM41.0503 32.464C42.5223 32.464 43.8103 32.176 44.9143 31.6C46.0183 31.008 46.8743 30.2 47.4823 29.176C48.0903 28.136 48.3943 26.944 48.3943 25.6C48.3943 24.256 48.0903 23.072 47.4823 22.048C46.8743 21.008 46.0183 20.2 44.9143 19.624C43.8103 19.032 42.5223 18.736 41.0503 18.736H36.0823V32.464H41.0503ZM59.1744 32.608C59.9584 32.608 60.6784 32.472 61.3344 32.2C62.0064 31.912 62.5744 31.496 63.0384 30.952L63.9984 32.056C63.4384 32.728 62.7424 33.24 61.9104 33.592C61.0784 33.944 60.1584 34.12 59.1504 34.12C57.8544 34.12 56.7024 33.848 55.6944 33.304C54.6864 32.744 53.9024 31.976 53.3424 31C52.7824 30.024 52.5024 28.92 52.5024 27.688C52.5024 26.456 52.7664 25.352 53.2944 24.376C53.8384 23.4 54.5824 22.64 55.5264 22.096C56.4704 21.552 57.5424 21.28 58.7424 21.28C59.8624 21.28 60.8704 21.536 61.7664 22.048C62.6784 22.56 63.3984 23.272 63.9264 24.184C64.4704 25.096 64.7584 26.136 64.7904 27.304L54.4224 29.32C54.7424 30.344 55.3184 31.152 56.1504 31.744C56.9984 32.32 58.0064 32.608 59.1744 32.608ZM58.7424 22.744C57.8624 22.744 57.0704 22.952 56.3664 23.368C55.6784 23.768 55.1344 24.336 54.7344 25.072C54.3504 25.792 54.1584 26.624 54.1584 27.568C54.1584 27.808 54.1664 27.984 54.1824 28.096L63.0864 26.368C62.8944 25.312 62.4064 24.448 61.6224 23.776C60.8384 23.088 59.8784 22.744 58.7424 22.744ZM84.0028 21.28C85.5868 21.28 86.8268 21.736 87.7228 22.648C88.6348 23.56 89.0908 24.904 89.0908 26.68V34H87.3868V26.848C87.3868 25.536 87.0668 24.536 86.4268 23.848C85.8028 23.16 84.9148 22.816 83.7628 22.816C82.4508 22.816 81.4188 23.224 80.6668 24.04C79.9148 24.84 79.5388 25.952 79.5388 27.376V34H77.8348V26.848C77.8348 25.536 77.5148 24.536 76.8748 23.848C76.2508 23.16 75.3548 22.816 74.1868 22.816C72.8908 22.816 71.8588 23.224 71.0908 24.04C70.3388 24.84 69.9628 25.952 69.9628 27.376V34H68.2588V21.376H69.8908V23.68C70.3388 22.912 70.9628 22.32 71.7628 21.904C72.5628 21.488 73.4828 21.28 74.5228 21.28C75.5788 21.28 76.4908 21.504 77.2588 21.952C78.0428 22.4 78.6268 23.064 79.0108 23.944C79.4748 23.112 80.1388 22.464 81.0028 22C81.8828 21.52 82.8828 21.28 84.0028 21.28ZM98.9188 34.12C97.7028 34.12 96.6068 33.848 95.6308 33.304C94.6548 32.744 93.8868 31.976 93.3268 31C92.7668 30.024 92.4868 28.92 92.4868 27.688C92.4868 26.456 92.7668 25.352 93.3268 24.376C93.8868 23.4 94.6548 22.64 95.6308 22.096C96.6068 21.552 97.7028 21.28 98.9188 21.28C100.135 21.28 101.231 21.552 102.207 22.096C103.183 22.64 103.943 23.4 104.487 24.376C105.047 25.352 105.327 26.456 105.327 27.688C105.327 28.92 105.047 30.024 104.487 31C103.943 31.976 103.183 32.744 102.207 33.304C101.231 33.848 100.135 34.12 98.9188 34.12ZM98.9188 32.608C99.8148 32.608 100.615 32.408 101.319 32.008C102.039 31.592 102.599 31.008 102.999 30.256C103.399 29.504 103.599 28.648 103.599 27.688C103.599 26.728 103.399 25.872 102.999 25.12C102.599 24.368 102.039 23.792 101.319 23.392C100.615 22.976 99.8148 22.768 98.9188 22.768C98.0228 22.768 97.2148 22.976 96.4948 23.392C95.7908 23.792 95.2308 24.368 94.8148 25.12C94.4148 25.872 94.2148 26.728 94.2148 27.688C94.2148 28.648 94.4148 29.504 94.8148 30.256C95.2308 31.008 95.7908 31.592 96.4948 32.008C97.2148 32.408 98.0228 32.608 98.9188 32.608Z" fill="#333333"/>
<defs>
<linearGradient id="paint0_linear" x1="93.5" y1="-5" x2="69" y2="52" gradientUnits="userSpaceOnUse">
<stop stop-color="#678DF0"/>
<stop offset="1" stop-color="#B28BF1"/>
</linearGradient>
</defs>
</svg>
