<svg width="17" height="22" viewBox="0 0 17 22" fill="none" xmlns="http://www.w3.org/2000/svg">
<path d="M1.20014 19.2082H15.6063C15.9104 19.2083 16.2032 19.3238 16.4255 19.5315C16.6477 19.7391 16.7829 20.0234 16.8036 20.3268C16.8243 20.6303 16.7291 20.9303 16.5372 21.1663C16.3452 21.4022 16.0709 21.5565 15.7695 21.598L15.6063 21.6092H1.20014C0.895977 21.6091 0.603185 21.4935 0.380929 21.2859C0.158673 21.0782 0.0235258 20.794 0.0027938 20.4905C-0.0179382 20.187 0.0772913 19.887 0.26924 19.6511C0.461189 19.4151 0.735547 19.2608 1.03687 19.2194L1.20014 19.2082H15.6063H1.20014ZM8.23993 0.0112047L8.4032 0C8.69331 1.22338e-05 8.97359 0.105073 9.19223 0.295753C9.41086 0.486433 9.55305 0.749833 9.59251 1.03724L9.60371 1.20051V13.5065L13.2132 9.8986C13.4168 9.69511 13.6867 9.57152 13.9738 9.55037C14.2608 9.52922 14.5459 9.6119 14.7771 9.78335L14.9116 9.8986C15.1151 10.1022 15.2386 10.3721 15.2598 10.6591C15.281 10.9462 15.1983 11.2313 15.0268 11.4625L14.9116 11.5969L9.25156 17.2553C9.0483 17.4586 8.77881 17.5823 8.49212 17.6037C8.20542 17.6251 7.92055 17.543 7.6893 17.3722L7.55484 17.2553L1.89484 11.5969C1.68004 11.3827 1.5543 11.0951 1.5429 10.792C1.5315 10.4888 1.63529 10.1926 1.83339 9.96288C2.0315 9.73315 2.30923 9.58692 2.61076 9.55362C2.91228 9.52031 3.21523 9.60239 3.4587 9.78335L3.59316 9.8986L7.20269 13.5097V1.20051C7.2027 0.910406 7.30777 0.63012 7.49845 0.411486C7.68913 0.192851 7.95252 0.0506588 8.23993 0.0112047L8.4032 0L8.23993 0.0112047Z" fill="#333333"/>
</svg>
