<svg width="22" height="21" viewBox="0 0 22 21" fill="none" xmlns="http://www.w3.org/2000/svg">
<path d="M11.0704 0.334656C9.03948 0.334656 7.05413 0.936902 5.36546 2.06524C3.67679 3.19357 2.36063 4.79732 1.58342 6.67367C0.806207 8.55002 0.602853 10.6147 0.999072 12.6066C1.39529 14.5986 2.37329 16.4283 3.80938 17.8644C5.24548 19.3005 7.07518 20.2785 9.06711 20.6747C11.059 21.0709 13.1237 20.8675 15.0001 20.0903C16.8764 19.3131 18.4802 17.997 19.6085 16.3083C20.7368 14.6196 21.3391 12.6343 21.3391 10.6033C21.3391 7.8799 20.2572 5.26802 18.3315 3.34228C16.4057 1.41653 13.7938 0.334656 11.0704 0.334656ZM7.76978 10.6033C7.40711 10.6033 7.05259 10.4958 6.75104 10.2943C6.44949 10.0928 6.21446 9.80641 6.07567 9.47135C5.93689 9.13629 5.90057 8.76759 5.97133 8.41189C6.04208 8.05619 6.21672 7.72946 6.47317 7.47301C6.72961 7.21657 7.05635 7.04193 7.41205 6.97117C7.76775 6.90042 8.13644 6.93673 8.47151 7.07552C8.80657 7.21431 9.09295 7.44934 9.29444 7.75089C9.49593 8.05243 9.60347 8.40696 9.60347 8.76963C9.60543 9.01098 9.55933 9.2503 9.46787 9.47366C9.37641 9.69701 9.24142 9.89993 9.07075 10.0706C8.90009 10.2413 8.69717 10.3763 8.47381 10.4677C8.25046 10.5592 8.01113 10.6053 7.76978 10.6033ZM14.3711 10.6033C14.0084 10.6033 13.6539 10.4958 13.3523 10.2943C13.0508 10.0928 12.8157 9.80641 12.677 9.47135C12.5382 9.13629 12.5019 8.76759 12.5726 8.41189C12.6434 8.05619 12.818 7.72946 13.0745 7.47301C13.3309 7.21657 13.6576 7.04193 14.0133 6.97117C14.369 6.90042 14.7377 6.93673 15.0728 7.07552C15.4079 7.21431 15.6942 7.44934 15.8957 7.75089C16.0972 8.05243 16.2048 8.40696 16.2048 8.76963C16.2067 9.01098 16.1606 9.2503 16.0692 9.47366C15.9777 9.69701 15.8427 9.89993 15.672 10.0706C15.5014 10.2413 15.2985 10.3763 15.0751 10.4677C14.8517 10.5592 14.6124 10.6053 14.3711 10.6033Z" fill="white"/>
</svg>
