<svg width="40" height="43" viewBox="0 0 40 43" fill="none" xmlns="http://www.w3.org/2000/svg">
<path d="M39.3501 27.3297L36.2798 24.7047C36.4251 23.8141 36.5001 22.9047 36.5001 21.9953C36.5001 21.0859 36.4251 20.1766 36.2798 19.2859L39.3501 16.6609C39.5817 16.4627 39.7474 16.1986 39.8253 15.9039C39.9032 15.6092 39.8895 15.2977 39.786 15.0109L39.7439 14.8891C38.8986 12.5267 37.6329 10.3367 36.0079 8.42501L35.9235 8.32657C35.7264 8.09479 35.4637 7.92817 35.17 7.84867C34.8763 7.76918 34.5654 7.78054 34.2782 7.88126L30.4673 9.23595C29.061 8.08282 27.4907 7.17345 25.7939 6.53595L25.0579 2.55157C25.0024 2.25177 24.857 1.97596 24.6409 1.76078C24.4249 1.54561 24.1486 1.40125 23.8485 1.34689L23.722 1.32345C21.2798 0.882825 18.711 0.882825 16.2689 1.32345L16.1423 1.34689C15.8423 1.40125 15.5659 1.54561 15.3499 1.76078C15.1339 1.97596 14.9884 2.25177 14.9329 2.55157L14.1923 6.5547C12.509 7.19233 10.9414 8.10122 9.55167 9.24532L5.71261 7.88126C5.42557 7.77974 5.11444 7.76797 4.82055 7.84751C4.52667 7.92705 4.26394 8.09414 4.0673 8.32657L3.98292 8.42501C2.35986 10.3381 1.09437 12.5277 0.246982 14.8891L0.204795 15.0109C-0.00614291 15.5969 0.167295 16.2531 0.640732 16.6609L3.74854 19.3141C3.60323 20.1953 3.53292 21.0953 3.53292 21.9906C3.53292 22.8906 3.60323 23.7906 3.74854 24.6672L0.640732 27.3203C0.40915 27.5186 0.243403 27.7826 0.165532 28.0774C0.0876611 28.3721 0.101355 28.6836 0.204795 28.9703L0.246982 29.0922C1.09542 31.4547 2.35167 33.6344 3.98292 35.5563L4.0673 35.6547C4.26442 35.8865 4.52716 36.0531 4.82087 36.1326C5.11458 36.2121 5.42548 36.2007 5.71261 36.1L9.55167 34.736C10.9485 35.8844 12.5095 36.7938 14.1923 37.4266L14.9329 41.4297C14.9884 41.7295 15.1339 42.0053 15.3499 42.2205C15.5659 42.4357 15.8423 42.58 16.1423 42.6344L16.2689 42.6578C18.7335 43.1008 21.2574 43.1008 23.722 42.6578L23.8485 42.6344C24.1486 42.58 24.4249 42.4357 24.6409 42.2205C24.857 42.0053 25.0024 41.7295 25.0579 41.4297L25.7939 37.4453C27.49 36.8095 29.0692 35.8972 30.4673 34.7453L34.2782 36.1C34.5653 36.2015 34.8764 36.2133 35.1703 36.1338C35.4642 36.0542 35.7269 35.8871 35.9235 35.6547L36.0079 35.5563C37.6392 33.6297 38.8954 31.4547 39.7439 29.0922L39.786 28.9703C39.997 28.3938 39.8235 27.7375 39.3501 27.3297ZM32.9517 19.8391C33.0689 20.5469 33.1298 21.2734 33.1298 22C33.1298 22.7266 33.0689 23.4531 32.9517 24.1609L32.6423 26.0406L36.1439 29.0359C35.613 30.2589 34.943 31.4165 34.147 32.4859L29.797 30.9438L28.3251 32.1531C27.2048 33.0719 25.9579 33.7938 24.6079 34.3L22.822 34.9703L21.9829 39.5172C20.659 39.6672 19.3224 39.6672 17.9985 39.5172L17.1595 34.9609L15.3876 34.2813C14.0517 33.775 12.8095 33.0531 11.6985 32.1391L10.2267 30.925L5.84855 32.4813C5.05167 31.4078 4.38604 30.25 3.85167 29.0313L7.39073 26.0078L7.08605 24.1328C6.97355 23.4344 6.91261 22.7125 6.91261 22C6.91261 21.2828 6.96886 20.5656 7.08605 19.8672L7.39073 17.9922L3.85167 14.9688C4.38136 13.7453 5.05167 12.5922 5.84855 11.5188L10.2267 13.075L11.6985 11.8609C12.8095 10.9469 14.0517 10.225 15.3876 9.71876L17.1642 9.04845L18.0032 4.4922C19.3204 4.3422 20.6657 4.3422 21.9876 4.4922L22.8267 9.03907L24.6126 9.70939C25.9579 10.2156 27.2095 10.9375 28.3298 11.8563L29.8017 13.0656L34.1517 11.5234C34.9485 12.5969 35.6142 13.7547 36.1485 14.9734L32.647 17.9688L32.9517 19.8391ZM20.0001 13.2813C15.4439 13.2813 11.7501 16.975 11.7501 21.5313C11.7501 26.0875 15.4439 29.7813 20.0001 29.7813C24.5564 29.7813 28.2501 26.0875 28.2501 21.5313C28.2501 16.975 24.5564 13.2813 20.0001 13.2813ZM23.7126 25.2438C23.2257 25.7321 22.647 26.1193 22.0099 26.3832C21.3727 26.6471 20.6897 26.7823 20.0001 26.7813C18.5985 26.7813 17.2814 26.2328 16.2876 25.2438C15.7993 24.7568 15.412 24.1782 15.1482 23.541C14.8843 22.9039 14.749 22.2209 14.7501 21.5313C14.7501 20.1297 15.2985 18.8125 16.2876 17.8188C17.2814 16.825 18.5985 16.2813 20.0001 16.2813C21.4017 16.2813 22.7189 16.825 23.7126 17.8188C24.2009 18.3057 24.5882 18.8844 24.852 19.5215C25.1159 20.1586 25.2512 20.8417 25.2501 21.5313C25.2501 22.9328 24.7017 24.25 23.7126 25.2438Z" fill="#333333"/>
</svg>
