<svg width="54" height="48" viewBox="0 0 54 48" fill="none" xmlns="http://www.w3.org/2000/svg">
<path d="M13 26H3C2.46957 26 1.96086 25.7893 1.58579 25.4142C1.21071 25.0392 1 24.5305 1 24C1 23.4696 1.21071 22.9609 1.58579 22.5858C1.96086 22.2107 2.46957 22 3 22H11.9298L15.336 16.8905C15.5186 16.6166 15.7661 16.392 16.0564 16.2367C16.3466 16.0813 16.6708 16.0001 17 16.0001C17.3292 16.0001 17.6534 16.0813 17.9436 16.2367C18.2339 16.392 18.4814 16.6166 18.664 16.8905L25 26.3945L27.336 22.8905C27.5186 22.6166 27.7661 22.392 28.0564 22.2367C28.3466 22.0813 28.6708 22 29 22H35C35.5304 22 36.0391 22.2107 36.4142 22.5858C36.7893 22.9609 37 23.4696 37 24C37 24.5305 36.7893 25.0392 36.4142 25.4142C36.0391 25.7893 35.5304 26 35 26H30.0703L26.664 31.1095C26.4814 31.3834 26.2339 31.608 25.9436 31.7634C25.6534 31.9187 25.3292 32 25 32C24.6708 32 24.3466 31.9187 24.0564 31.7634C23.7661 31.608 23.5186 31.3834 23.336 31.1095L17 21.6055L14.664 25.1095C14.4814 25.3834 14.2339 25.6081 13.9436 25.7634C13.6534 25.9187 13.3292 26 13 26ZM39 2.17054e-05C36.6717 -0.00394364 34.3746 0.535461 32.2913 1.57533C30.2081 2.6152 28.3963 4.12685 27 5.99002C25.1089 3.47385 22.4745 1.61606 19.4695 0.679556C16.4644 -0.25695 13.241 -0.22475 10.2553 0.771598C7.26953 1.76795 4.67273 3.67799 2.83231 6.23144C0.991884 8.78489 0.001046 11.8524 0 15C0 15.3683 0.0107502 15.7425 0.0317502 16.1125C0.0619849 16.6421 0.301352 17.138 0.697195 17.491C1.09304 17.8441 1.61293 18.0255 2.1425 17.9953C2.67207 17.965 3.16794 17.7257 3.52103 17.3298C3.87411 16.934 4.05549 16.4141 4.02525 15.8845C4.00851 15.59 4.00008 15.295 4 15C4.00039 12.4575 4.88138 9.99356 6.49318 8.02719C8.10498 6.06082 10.3481 4.71339 12.8411 4.21401C15.3341 3.71463 17.9231 4.09413 20.168 5.28797C22.4128 6.48181 24.1748 8.4163 25.1545 10.7625C25.3066 11.1265 25.563 11.4374 25.8913 11.6561C26.2197 11.8748 26.6054 11.9914 26.9999 11.9914C27.3944 11.9914 27.7801 11.8748 28.1084 11.6561C28.4368 11.4374 28.6931 11.1265 28.8452 10.7625C29.825 8.4164 31.5871 6.48202 33.8319 5.28826C36.0767 4.0945 38.6657 3.71505 41.1587 4.21441C43.6516 4.71378 45.8947 6.06114 47.5065 8.02742C49.1184 9.9937 49.9995 12.4575 50 15C50 28.7915 31.4998 40.9278 26.9993 43.675C24.3542 42.0633 16.8818 37.2178 11.1702 30.684C10.8212 30.2846 10.3277 30.0403 9.79846 30.0047C9.26921 29.9692 8.74751 30.1453 8.34813 30.4944C7.94874 30.8435 7.70439 31.3369 7.66883 31.8662C7.63327 32.3954 7.80941 32.9171 8.1585 33.3165C15.6493 41.8855 25.6028 47.5098 26.0228 47.745C26.3213 47.9123 26.6578 48.0001 27 48.0001C27.3422 48.0001 27.6787 47.9123 27.9772 47.745C32.568 45.0564 36.8766 41.9127 40.838 38.3615C49.5718 30.5013 54 22.6413 54 15C53.9955 11.0232 52.4137 7.21046 49.6016 4.39839C46.7896 1.58632 42.9769 0.00452118 39 2.17054e-05Z" fill="#FF4E4E"/>
</svg>
