<svg width="40" height="40" viewBox="0 0 31 44" fill="none" xmlns="http://www.w3.org/2000/svg">
<path d="M15.5001 6.77332C14.0206 6.77332 12.5742 7.21207 11.344 8.03407C10.1138 8.85608 9.15494 10.0244 8.58873 11.3914C8.02253 12.7583 7.87438 14.2625 8.16303 15.7136C8.45168 17.1647 9.16416 18.4977 10.2104 19.5439C11.2566 20.5901 12.5895 21.3026 14.0407 21.5913C15.4918 21.8799 16.996 21.7318 18.3629 21.1655C19.7299 20.5993 20.8982 19.6405 21.7202 18.4103C22.5422 17.1801 22.981 15.7337 22.981 14.2542C22.981 12.2701 22.1928 10.3673 20.7899 8.96441C19.3869 7.56148 17.4842 6.77332 15.5001 6.77332ZM15.5001 19.1239C14.537 19.1239 13.5955 18.8383 12.7947 18.3032C11.9938 17.7681 11.3697 17.0075 11.0011 16.1177C10.6325 15.2279 10.5361 14.2488 10.724 13.3041C10.9119 12.3595 11.3757 11.4918 12.0567 10.8107C12.7378 10.1297 13.6055 9.6659 14.5501 9.478C15.4947 9.29011 16.4739 9.38654 17.3637 9.75512C18.2535 10.1237 19.0141 10.7479 19.5491 11.5487C20.0842 12.3495 20.3698 13.291 20.3698 14.2542C20.3664 15.5434 19.8518 16.7787 18.9389 17.6891C18.0261 18.5996 16.7894 19.1108 15.5001 19.1108V19.1239Z" fill="#C8C8C8"/>
<path d="M15.5001 0.611115C11.4335 0.614511 7.53353 2.22698 4.65194 5.09634C1.77034 7.96571 0.141299 11.8588 0.120605 15.9253C0.120605 22.0222 3.54116 27.1269 6.04783 30.8478L6.50477 31.5267C8.99875 35.1413 11.6742 38.6272 14.5209 41.9711L15.5131 43.1331L16.5053 41.9711C19.3516 38.6269 22.0271 35.141 24.5214 31.5267L24.9784 30.8347C27.472 27.1139 30.8926 22.0222 30.8926 15.9253C30.8718 11.8565 29.241 7.96148 26.3566 5.09174C23.4722 2.22201 19.5689 0.611062 15.5001 0.611115ZM22.7981 29.3333L22.3281 30.0253C20.0826 33.3936 17.1059 37.1667 15.5001 39.0336C13.9595 37.1667 10.9176 33.3936 8.672 30.0253L8.21505 29.3333C5.90422 25.8867 2.73172 21.1736 2.73172 15.8731C2.73172 14.1963 3.06198 12.536 3.70365 10.9868C4.34532 9.4377 5.28583 8.03013 6.47148 6.84448C7.65712 5.65883 9.06469 4.71833 10.6138 4.07666C12.1629 3.43499 13.8233 3.10473 15.5001 3.10473C17.1768 3.10473 18.8372 3.43499 20.3863 4.07666C21.9354 4.71833 23.343 5.65883 24.5286 6.84448C25.7143 8.03013 26.6548 9.4377 27.2965 10.9868C27.9381 12.536 28.2684 14.1963 28.2684 15.8731C28.2684 21.2258 25.1089 25.9389 22.7981 29.3333Z" fill="#C8C8C8"/>
</svg>
