<svg width="268" height="64" viewBox="0 0 268 64" fill="none" xmlns="http://www.w3.org/2000/svg">
<path d="M18 34H8C7.46957 34 6.96086 33.7893 6.58579 33.4142C6.21071 33.0392 6 32.5305 6 32C6 31.4696 6.21071 30.9609 6.58579 30.5858C6.96086 30.2107 7.46957 30 8 30H16.9298L20.336 24.8905C20.5186 24.6166 20.7661 24.392 21.0564 24.2367C21.3466 24.0813 21.6708 24.0001 22 24.0001C22.3292 24.0001 22.6534 24.0813 22.9436 24.2367C23.2339 24.392 23.4814 24.6166 23.664 24.8905L30 34.3945L32.336 30.8905C32.5186 30.6166 32.7661 30.392 33.0564 30.2367C33.3466 30.0813 33.6708 30 34 30H40C40.5304 30 41.0391 30.2107 41.4142 30.5858C41.7893 30.9609 42 31.4696 42 32C42 32.5305 41.7893 33.0392 41.4142 33.4142C41.0391 33.7893 40.5304 34 40 34H35.0703L31.664 39.1095C31.4814 39.3834 31.2339 39.608 30.9436 39.7634C30.6534 39.9187 30.3292 40 30 40C29.6708 40 29.3466 39.9187 29.0564 39.7634C28.7661 39.608 28.5186 39.3834 28.336 39.1095L22 29.6055L19.664 33.1095C19.4814 33.3834 19.2339 33.6081 18.9436 33.7634C18.6534 33.9187 18.3292 34 18 34ZM44 8.00002C41.6717 7.99606 39.3746 8.53546 37.2913 9.57533C35.2081 10.6152 33.3963 12.1268 32 13.99C30.1089 11.4738 27.4745 9.61606 24.4695 8.67956C21.4644 7.74305 18.241 7.77525 15.2553 8.7716C12.2695 9.76795 9.67273 11.678 7.83231 14.2314C5.99188 16.7849 5.00105 19.8524 5 23C5 23.3683 5.01075 23.7425 5.03175 24.1125C5.06198 24.6421 5.30135 25.138 5.69719 25.491C6.09304 25.8441 6.61293 26.0255 7.1425 25.9953C7.67207 25.965 8.16794 25.7257 8.52103 25.3298C8.87411 24.934 9.05549 24.4141 9.02525 23.8845C9.00851 23.59 9.00008 23.295 9 23C9.00039 20.4575 9.88138 17.9936 11.4932 16.0272C13.105 14.0608 15.3481 12.7134 17.8411 12.214C20.3341 11.7146 22.9231 12.0941 25.168 13.288C27.4128 14.4818 29.1748 16.4163 30.1545 18.7625C30.3066 19.1265 30.563 19.4374 30.8913 19.6561C31.2197 19.8748 31.6054 19.9914 31.9999 19.9914C32.3944 19.9914 32.7801 19.8748 33.1084 19.6561C33.4368 19.4374 33.6931 19.1265 33.8452 18.7625C34.825 16.4164 36.5871 14.482 38.8319 13.2883C41.0767 12.0945 43.6657 11.715 46.1587 12.2144C48.6516 12.7138 50.8947 14.0611 52.5065 16.0274C54.1184 17.9937 54.9995 20.4575 55 23C55 36.7915 36.4998 48.9278 31.9993 51.675C29.3542 50.0633 21.8818 45.2178 16.1702 38.684C15.8212 38.2846 15.3277 38.0403 14.7985 38.0047C14.2692 37.9692 13.7475 38.1453 13.3481 38.4944C12.9487 38.8435 12.7044 39.3369 12.6688 39.8662C12.6333 40.3954 12.8094 40.9171 13.1585 41.3165C20.6493 49.8855 30.6028 55.5098 31.0228 55.745C31.3213 55.9123 31.6578 56.0001 32 56.0001C32.3422 56.0001 32.6787 55.9123 32.9772 55.745C37.568 53.0564 41.8766 49.9127 45.838 46.3615C54.5718 38.5013 59 30.6413 59 23C58.9955 19.0232 57.4137 15.2105 54.6016 12.3984C51.7896 9.58632 47.9769 8.00452 44 8.00002Z" fill="#FF4E4E"/>
<path d="M89.784 47.4255C86.7775 47.4255 84.0545 46.7731 81.6153 45.4684C79.2044 44.1353 77.304 42.3058 75.9142 39.98C74.5527 37.6542 73.872 35.0305 73.872 32.1091C73.872 29.1876 74.5669 26.564 75.9567 24.2382C77.3465 21.9124 79.2469 20.0971 81.6578 18.7924C84.0971 17.4593 86.82 16.7927 89.8265 16.7927C92.2658 16.7927 94.4924 17.2182 96.5062 18.0691C98.52 18.92 100.222 20.1538 101.612 21.7705L98.0378 25.1316C95.8822 22.8058 93.2302 21.6429 90.0818 21.6429C88.0396 21.6429 86.2102 22.0967 84.5935 23.0044C82.9767 23.8836 81.7145 25.1175 80.8069 26.7058C79.8993 28.2942 79.4455 30.0953 79.4455 32.1091C79.4455 34.1229 79.8993 35.924 80.8069 37.5124C81.7145 39.1007 82.9767 40.3487 84.5935 41.2564C86.2102 42.1356 88.0396 42.5753 90.0818 42.5753C93.2302 42.5753 95.8822 41.3982 98.0378 39.044L101.612 42.4476C100.222 44.0644 98.5058 45.2982 96.4636 46.1491C94.4498 47 92.2233 47.4255 89.784 47.4255ZM119.292 24.0255C122.157 24.0255 124.454 24.8622 126.184 26.5356C127.914 28.2091 128.78 30.6909 128.78 33.9811V47H123.461V34.6618C123.461 32.6764 122.993 31.1873 122.057 30.1945C121.121 29.1735 119.788 28.6629 118.058 28.6629C116.101 28.6629 114.555 29.2585 113.421 30.4498C112.286 31.6127 111.719 33.3004 111.719 35.5127V47H106.401V15.4313H111.719V26.9185C112.598 25.9825 113.676 25.2735 114.952 24.7913C116.257 24.2807 117.704 24.0255 119.292 24.0255ZM157.092 35.768C157.092 36.1367 157.063 36.6615 157.006 37.3422H139.18C139.492 39.0156 140.3 40.3487 141.605 41.3415C142.938 42.3058 144.583 42.788 146.54 42.788C149.036 42.788 151.093 41.9655 152.709 40.3204L155.56 43.5964C154.539 44.816 153.248 45.7378 151.688 46.3618C150.128 46.9858 148.37 47.2978 146.413 47.2978C143.917 47.2978 141.718 46.8015 139.818 45.8087C137.918 44.816 136.443 43.4404 135.393 41.6818C134.372 39.8949 133.862 37.8811 133.862 35.6404C133.862 33.428 134.358 31.4425 135.351 29.684C136.372 27.8971 137.776 26.5073 139.563 25.5145C141.35 24.5218 143.364 24.0255 145.604 24.0255C147.817 24.0255 149.788 24.5218 151.518 25.5145C153.277 26.4789 154.638 27.8545 155.602 29.6415C156.595 31.4 157.092 33.4422 157.092 35.768ZM145.604 28.28C143.902 28.28 142.456 28.7905 141.265 29.8116C140.102 30.8044 139.393 32.1375 139.137 33.8109H152.029C151.802 32.1658 151.107 30.8327 149.944 29.8116C148.781 28.7905 147.334 28.28 145.604 28.28ZM172.624 47.2978C170.269 47.2978 168.156 46.8015 166.284 45.8087C164.412 44.816 162.952 43.4404 161.902 41.6818C160.853 39.8949 160.328 37.8811 160.328 35.6404C160.328 33.3996 160.853 31.4 161.902 29.6415C162.952 27.8829 164.398 26.5073 166.242 25.5145C168.114 24.5218 170.241 24.0255 172.624 24.0255C174.864 24.0255 176.821 24.4793 178.495 25.3869C180.197 26.2945 181.473 27.5993 182.324 29.3011L178.24 31.6836C177.587 30.6342 176.765 29.8542 175.772 29.3436C174.808 28.8047 173.744 28.5353 172.581 28.5353C170.596 28.5353 168.951 29.1876 167.646 30.4924C166.341 31.7687 165.689 33.4847 165.689 35.6404C165.689 37.796 166.327 39.5262 167.603 40.8309C168.908 42.1073 170.567 42.7455 172.581 42.7455C173.744 42.7455 174.808 42.4902 175.772 41.9796C176.765 41.4407 177.587 40.6465 178.24 39.5971L182.324 41.9796C181.445 43.6815 180.154 45.0004 178.452 45.9364C176.779 46.844 174.836 47.2978 172.624 47.2978ZM195.988 37.2571L192.032 41.0011V47H186.714V15.4313H192.032V34.4916L203.051 24.2807H209.433L199.945 33.8109L210.326 47H203.859L195.988 37.2571ZM235.342 24.2807V47H230.279V44.1069C229.428 45.128 228.365 45.9222 227.088 46.4895C225.812 47.0284 224.436 47.2978 222.961 47.2978C219.926 47.2978 217.53 46.4611 215.771 44.7876C214.041 43.0858 213.176 40.5756 213.176 37.2571V24.2807H218.494V36.5338C218.494 38.576 218.948 40.1076 219.855 41.1287C220.791 42.1215 222.11 42.6178 223.812 42.6178C225.713 42.6178 227.216 42.0364 228.322 40.8735C229.457 39.6822 230.024 37.9804 230.024 35.768V24.2807H235.342ZM254.899 24.0255C257.111 24.0255 259.082 24.5076 260.812 25.472C262.571 26.4364 263.947 27.7978 264.939 29.5564C265.932 31.3149 266.428 33.3429 266.428 35.6404C266.428 37.9378 265.932 39.98 264.939 41.7669C263.947 43.5255 262.571 44.8869 260.812 45.8513C259.082 46.8156 257.111 47.2978 254.899 47.2978C251.835 47.2978 249.41 46.2767 247.623 44.2345V55.2538H242.305V24.2807H247.368V27.2589C248.247 26.1811 249.325 25.3727 250.601 24.8338C251.906 24.2949 253.339 24.0255 254.899 24.0255ZM254.303 42.7455C256.26 42.7455 257.863 42.0931 259.111 40.7884C260.387 39.4836 261.025 37.7676 261.025 35.6404C261.025 33.5131 260.387 31.7971 259.111 30.4924C257.863 29.1876 256.26 28.5353 254.303 28.5353C253.027 28.5353 251.878 28.8331 250.857 29.4287C249.836 29.996 249.027 30.8185 248.432 31.8964C247.836 32.9742 247.538 34.2222 247.538 35.6404C247.538 37.0585 247.836 38.3065 248.432 39.3844C249.027 40.4622 249.836 41.2989 250.857 41.8945C251.878 42.4618 253.027 42.7455 254.303 42.7455Z" fill="#333333"/>
</svg>
