<svg width="41" height="86" viewBox="0 0 41 86" fill="none" xmlns="http://www.w3.org/2000/svg">
<path d="M0 0H13.2073L41 26.4423L13.2073 53H0L27.7927 26.4423L0 0Z" fill="black"/>
<path d="M12.4046 73.772C13.254 73.772 13.9473 74.0363 14.4846 74.565C15.022 75.085 15.2906 75.8433 15.2906 76.84V81H14.3936V76.944C14.3936 76.1727 14.1986 75.5833 13.8086 75.176C13.4273 74.7687 12.903 74.565 12.2356 74.565C11.551 74.565 11.005 74.7817 10.5976 75.215C10.1903 75.6483 9.98662 76.2853 9.98662 77.126V81H9.07662V73.902H9.98662V75.111C10.212 74.6777 10.537 74.3483 10.9616 74.123C11.3863 73.889 11.8673 73.772 12.4046 73.772ZM23.7252 77.087C23.7252 77.399 23.7165 77.6373 23.6992 77.802H17.8102C17.8362 78.3393 17.9662 78.7987 18.2002 79.18C18.4342 79.5613 18.7419 79.8517 19.1232 80.051C19.5045 80.2417 19.9205 80.337 20.3712 80.337C20.9605 80.337 21.4545 80.194 21.8532 79.908C22.2605 79.622 22.5292 79.2363 22.6592 78.751H23.6212C23.4479 79.4443 23.0752 80.012 22.5032 80.454C21.9399 80.8873 21.2292 81.104 20.3712 81.104C19.7039 81.104 19.1059 80.9567 18.5772 80.662C18.0485 80.3587 17.6325 79.934 17.3292 79.388C17.0345 78.8333 16.8872 78.1877 16.8872 77.451C16.8872 76.7143 17.0345 76.0687 17.3292 75.514C17.6239 74.9593 18.0355 74.5347 18.5642 74.24C19.0929 73.9453 19.6952 73.798 20.3712 73.798C21.0472 73.798 21.6365 73.9453 22.1392 74.24C22.6505 74.5347 23.0405 74.9333 23.3092 75.436C23.5865 75.93 23.7252 76.4803 23.7252 77.087ZM22.8022 77.061C22.8109 76.5323 22.7025 76.0817 22.4772 75.709C22.2605 75.3363 21.9615 75.0547 21.5802 74.864C21.1989 74.6733 20.7829 74.578 20.3322 74.578C19.6562 74.578 19.0799 74.7947 18.6032 75.228C18.1265 75.6613 17.8622 76.2723 17.8102 77.061H22.8022ZM29.1081 81L27.2751 78.14L25.5071 81H24.5451L26.8331 77.451L24.5711 73.902H25.5981L27.4051 76.723L29.1601 73.902H30.1091L27.8471 77.412L30.1351 81H29.1081ZM32.5526 74.669V79.076C32.5526 79.5093 32.6349 79.8083 32.7996 79.973C32.9643 80.1377 33.2546 80.22 33.6706 80.22H34.5026V81H33.5276C32.8863 81 32.4096 80.8527 32.0976 80.558C31.7856 80.2547 31.6296 79.7607 31.6296 79.076V74.669H30.6416V73.902H31.6296V72.121H32.5526V73.902H34.5026V74.669H32.5526Z" fill="#818181"/>
</svg>
