<svg width="16" height="16" viewBox="0 0 16 16" fill="none" xmlns="http://www.w3.org/2000/svg">
<path d="M6.91567 3.68L4.37842 0.75125C4.08592 0.41375 3.54967 0.41525 3.20992 0.75575L1.12342 2.846C0.502424 3.46775 0.324674 4.391 0.683924 5.13125C2.83014 9.57497 6.41396 13.1638 10.8547 15.3162C11.5942 15.6755 12.5167 15.4977 13.1377 14.876L15.2437 12.7662C15.5849 12.425 15.5857 11.8857 15.2452 11.5932L12.3052 9.0695C11.9977 8.8055 11.5199 8.84 11.2117 9.149L10.1887 10.1735C10.1363 10.2284 10.0674 10.2646 9.99244 10.2765C9.91751 10.2884 9.84075 10.2754 9.77392 10.2395C8.10176 9.27657 6.71467 7.88767 5.75392 6.21425C5.71794 6.14731 5.70492 6.07042 5.71684 5.99537C5.72876 5.92031 5.76497 5.85124 5.81992 5.79875L6.83992 4.778C7.14892 4.4675 7.18267 3.9875 6.91567 3.67925V3.68Z" stroke="black" stroke-width="0.947369" stroke-linecap="round" stroke-linejoin="round"/>
</svg>
