<svg width="21" height="21" viewBox="0 0 21 21" fill="none" xmlns="http://www.w3.org/2000/svg">
<path fill-rule="evenodd" clip-rule="evenodd" d="M18.1406 10.1255C18.1412 11.8652 17.5445 13.5523 16.4502 14.9047C15.3559 16.2571 13.8304 17.1928 12.1289 17.5552C10.4274 17.9176 8.65305 17.6849 7.10261 16.8958C5.55217 16.1067 4.31967 14.8093 3.61125 13.2203L1.26394 14.1738C2.19446 16.3059 3.83068 18.0526 5.89751 19.1202C7.96433 20.1879 10.3357 20.5114 12.613 20.0364C14.8903 19.5614 16.9346 18.3168 18.4022 16.5119C19.8699 14.707 20.6713 12.4518 20.6719 10.1255C20.672 8.01227 20.0109 5.952 18.7812 4.23339C17.5516 2.51479 15.815 1.224 13.8149 0.541919C11.8148 -0.140161 9.65144 -0.179341 7.62796 0.42987C5.60448 1.03908 3.82232 2.26615 2.53125 3.9391V0.844223H0V7.59422L1.26562 8.85985H7.17188V6.3286H3.969C4.80449 4.88017 6.09469 3.748 7.6394 3.10778C9.1841 2.46757 10.8969 2.3551 12.5121 2.78783C14.1272 3.22057 15.5544 4.1743 16.5721 5.50105C17.5898 6.82779 18.1412 8.45335 18.1406 10.1255Z" fill="white"/>
</svg>
