<svg width="20" height="16" viewBox="0 0 20 16" fill="none" xmlns="http://www.w3.org/2000/svg">
<path d="M19.4518 3.52469C19.4518 3.52477 19.4518 3.52486 19.4518 3.52494L19.4518 12.5487C19.4583 12.8019 19.3927 13.0516 19.2627 13.269C19.1326 13.4866 18.9433 13.6628 18.7169 13.7769C18.7168 13.7769 18.7167 13.777 18.7166 13.7771L18.6742 13.6929C18.4691 13.7976 18.2385 13.8422 18.0091 13.8213C17.7797 13.8004 17.5609 13.7151 17.3781 13.575L19.4518 3.52469ZM19.4518 3.52469C19.4537 3.27547 19.3858 3.03069 19.2559 2.81797C19.1262 2.60552 18.9398 2.43349 18.7177 2.32124C18.5061 2.20788 18.2668 2.15667 18.0273 2.17353C17.7885 2.19035 17.5593 2.2742 17.366 2.41542L14.7388 4.09444V2.14564C14.7388 1.80813 14.6047 1.48446 14.3661 1.24581C14.1274 1.00716 13.8037 0.873083 13.4663 0.873083H2.86189C2.21191 0.873083 1.58854 1.1313 1.12893 1.59092C0.669315 2.05054 0.411108 2.67392 0.411108 3.32392V12.7502C0.411108 13.4002 0.669315 14.0236 1.12893 14.4832C1.58854 14.9429 2.21191 15.2011 2.86189 15.2011H13.4663C13.8037 15.2011 14.1274 15.067 14.3661 14.8284C14.6047 14.5897 14.7388 14.266 14.7388 13.9285V11.9808L17.3238 13.6522L17.4193 2.49323C17.5988 2.36145 17.8119 2.28321 18.034 2.26756C18.2561 2.25192 18.478 2.29953 18.6742 2.40486C18.8811 2.50919 19.0547 2.66929 19.1755 2.86709C19.2962 3.06488 19.3593 3.2925 19.3576 3.52423H19.4518V3.52469ZM13.372 13.8343H2.86189C2.5744 13.8343 2.29868 13.7201 2.09539 13.5168C1.8921 13.3135 1.7779 13.0377 1.7779 12.7502V3.32392C1.7779 3.03642 1.8921 2.7607 2.09539 2.5574C2.29868 2.35411 2.5744 2.2399 2.86189 2.2399H13.372V6.40515C13.372 6.43961 13.3908 6.47132 13.421 6.48786C13.4513 6.50439 13.4881 6.5031 13.5171 6.48451L18.085 3.55629V12.5057C18.0843 12.5052 18.0835 12.5046 18.0827 12.504L18.0828 12.5038L18.0768 12.4999L13.517 9.58955C13.4879 9.57103 13.4511 9.5698 13.4209 9.58635C13.3908 9.60289 13.372 9.63458 13.372 9.66901V13.8343Z" fill="white" stroke="white" stroke-width="0.188526" stroke-linecap="round" stroke-linejoin="round"/>
</svg>
