<svg width="13" height="21" viewBox="0 0 13 21" fill="none" xmlns="http://www.w3.org/2000/svg">
<path d="M1.44006 8.84688C1.3119 8.71872 1.13807 8.64672 0.95682 8.64672C0.775569 8.64672 0.601742 8.71872 0.473578 8.84688C0.345414 8.97505 0.273413 9.14888 0.273413 9.33013V10.5084C0.273394 11.9923 0.824558 13.4233 1.81998 14.5238C2.7963 15.6032 4.13173 16.2891 5.57571 16.4551V18.6622H2.13511C1.95386 18.6622 1.78003 18.7342 1.65187 18.8623C1.5237 18.9905 1.4517 19.1643 1.4517 19.3456C1.4517 19.5268 1.5237 19.7007 1.65187 19.8288C1.78003 19.957 1.95386 20.029 2.13511 20.029H10.3831C10.5644 20.029 10.7382 19.957 10.8664 19.8288C10.9945 19.7007 11.0665 19.5268 11.0665 19.3456C11.0665 19.1643 10.9945 18.9905 10.8664 18.8623C10.7382 18.7342 10.5644 18.6622 10.3831 18.6622H6.94253V16.4551C8.38651 16.2891 9.72194 15.6032 10.6983 14.5238C11.6937 13.4233 12.2448 11.9923 12.2448 10.5084V9.33013C12.2448 9.14888 12.1728 8.97505 12.0447 8.84688C11.9165 8.71872 11.7427 8.64672 11.5614 8.64672C11.3802 8.64672 11.2063 8.71872 11.0782 8.84688C10.95 8.97505 10.878 9.14888 10.878 9.33013V10.5084C10.878 11.7334 10.3914 12.9083 9.52517 13.7745C8.65896 14.6407 7.48413 15.1273 6.25912 15.1273C5.03411 15.1273 3.85928 14.6407 2.99307 13.7745C2.12686 12.9083 1.64023 11.7334 1.64023 10.5084V9.33013C1.64023 9.14888 1.56823 8.97505 1.44006 8.84688Z" fill="white" stroke="white" stroke-width="0.188526"/>
<path d="M6.35325 0.989067V0.987844H6.25899C5.29648 0.987844 4.3734 1.3702 3.69281 2.05079C3.01221 2.73139 2.62986 3.65447 2.62986 4.61697V10.5084C2.62986 11.4709 3.01221 12.394 3.69281 13.0746C4.3734 13.7552 5.29648 14.1375 6.25899 14.1375C7.22149 14.1375 8.14458 13.7552 8.82517 13.0746C9.50576 12.394 9.88812 11.4709 9.88812 10.5084V4.61697C9.88812 3.65447 9.50576 2.73139 8.82517 2.05079C8.16683 1.39245 7.28159 1.01316 6.35325 0.989067ZM8.5213 4.61697V10.5084C8.5213 11.1084 8.28295 11.6838 7.85869 12.1081C7.43442 12.5324 6.85899 12.7707 6.25899 12.7707C5.65898 12.7707 5.08356 12.5324 4.65929 12.1081C4.23502 11.6838 3.99667 11.1084 3.99667 10.5084V4.61697C3.99667 4.01697 4.23502 3.44154 4.65929 3.01728C5.08356 2.59301 5.65898 2.35466 6.25899 2.35466C6.85899 2.35466 7.43442 2.59301 7.85869 3.01728C8.28295 3.44154 8.5213 4.01697 8.5213 4.61697Z" fill="white" stroke="white" stroke-width="0.188526"/>
</svg>
