<svg width="16" height="16" viewBox="0 0 16 16" fill="none" xmlns="http://www.w3.org/2000/svg">
<g clip-path="url(#clip0)">
<path d="M0 7.73922V7.71659C0.200837 5.09141 1.13808 3.12253 2.76709 1.87783C4.37378 0.610503 6.11437 -0.000530037 8.01116 -0.000530037C9.99721 -0.0231609 11.8494 0.655764 13.5007 2.01361C15.1743 3.34883 16 5.34035 16 7.92026V8.07868C16 10.6812 15.1743 12.6275 13.5007 13.9627C11.8271 15.3205 9.9749 15.9995 7.98884 15.9995H7.89958C5.95816 15.9768 4.17294 15.2979 2.52162 13.9401C0.870293 12.6048 0.0223152 10.5454 0 7.73922ZM7.52022 4.18618V0.610503H6.98466C6.87308 0.746288 6.78382 0.904703 6.69456 1.04049C6.6053 1.17627 6.51604 1.31206 6.42678 1.47047C6.33752 1.60626 6.22594 1.78731 6.159 1.92309C6.06974 2.05888 6.00279 2.19466 5.93584 2.35308C5.80195 2.57939 5.69038 2.80569 5.60112 3.00937C5.48954 3.21305 5.40028 3.41673 5.33333 3.59777C5.46722 3.6883 5.62343 3.80145 5.80195 3.86934C6.00279 3.93724 6.20363 4.00513 6.40446 4.05039C6.62761 4.09565 6.82845 4.11828 7.00697 4.14091C7.20781 4.16354 7.38633 4.18618 7.52022 4.18618ZM8.45746 0.610503V4.16354C8.56904 4.16354 8.70293 4.18618 8.83682 4.16354C8.97071 4.16354 9.12692 4.14091 9.26081 4.11828C9.50628 4.07302 9.79637 4.00513 10.0195 3.93724C10.265 3.84671 10.4881 3.73356 10.6444 3.59777C10.3766 2.94148 10.0865 2.42097 9.79637 1.92309C9.50628 1.42521 9.17155 0.995227 8.8145 0.633133V0.610503H8.45746ZM6.04742 0.81418V0.791549C5.89121 0.859442 5.73501 0.972596 5.55649 1.04049C5.40028 1.10838 5.19944 1.1989 5.04324 1.28943C4.73082 1.44784 4.41841 1.62889 4.106 1.83257C3.8159 2.03625 3.5258 2.26255 3.28033 2.48886C3.3696 2.57939 3.48117 2.66991 3.57043 2.7378C3.65969 2.80569 3.77127 2.89622 3.88285 2.98674C3.97211 3.032 4.08368 3.0999 4.19526 3.19042C4.30683 3.25831 4.44073 3.34883 4.57462 3.43936C4.75314 3.032 4.93166 2.60202 5.15481 2.21729C5.37796 1.80994 5.62343 1.42521 5.8689 1.08575C5.89121 1.04049 5.91353 0.995227 5.95816 0.949965C5.98047 0.927334 6.00279 0.859442 6.04742 0.81418ZM12.8759 2.48886V2.46623C12.318 2.03625 11.8271 1.67415 11.3361 1.44784C10.8452 1.22154 10.3543 0.995227 9.90795 0.81418C10.265 1.17627 10.5774 1.62889 10.7782 2.05888C11.0014 2.51149 11.2245 2.98674 11.4031 3.43936C11.4923 3.3941 11.6039 3.34883 11.7378 3.25831C11.8494 3.19042 12.0056 3.12253 12.1395 3.05463C12.2734 2.96411 12.3849 2.87359 12.5188 2.78306C12.6527 2.66991 12.7866 2.57939 12.8759 2.48886ZM12.4965 7.53554H15.0628C15.0628 6.6982 14.8842 5.90612 14.5495 5.09141C14.2371 4.29933 13.7908 3.64303 13.2329 3.07726V3.05463C13.1213 3.23568 12.9651 3.3941 12.8089 3.50725C12.6304 3.6204 12.4742 3.71093 12.2957 3.80145C12.1841 3.86934 12.0725 3.95987 11.9609 4.00513C11.8494 4.07302 11.6932 4.11828 11.5816 4.18618C11.6709 4.36722 11.7601 4.5709 11.8494 4.75195C11.9163 4.95562 12.0279 5.18193 12.0725 5.38561C12.2064 5.7477 12.2957 6.13243 12.3849 6.51715C12.4519 6.85661 12.4965 7.21871 12.4965 7.53554ZM4.41841 4.18618V4.16354C4.23989 4.07302 4.03905 4.00513 3.88285 3.91461C3.72664 3.80145 3.57043 3.6883 3.43654 3.59777C3.30265 3.52988 3.16876 3.43936 3.05718 3.34883C2.94561 3.25831 2.85635 3.16779 2.76709 3.07726C2.18689 3.64303 1.7629 4.2767 1.49512 5.02352C1.20502 5.77033 1.00418 6.60768 0.914923 7.51291H3.65969C3.65969 6.87924 3.74895 6.26821 3.90516 5.65718C4.03905 5.02352 4.23989 4.54827 4.41841 4.18618ZM7.52022 7.51291V4.91036C7.3417 4.93299 7.11855 4.93299 6.91771 4.91036C6.69456 4.88773 6.47141 4.81984 6.27057 4.75195C6.09205 4.70668 5.8689 4.66142 5.69038 4.59353C5.48954 4.54827 5.2887 4.45775 5.1325 4.36722C4.99861 4.59353 4.88703 4.8651 4.79777 5.1593C4.68619 5.43087 4.61925 5.72507 4.5523 5.99664C4.50767 6.26821 4.48536 6.56241 4.46304 6.81135C4.44073 7.06029 4.41841 7.30923 4.41841 7.51291H7.52022ZM8.45746 4.95562V7.51291H11.7601C11.7601 7.37712 11.7601 7.21871 11.7378 7.03766C11.6932 6.87924 11.6709 6.67557 11.6485 6.49452C11.5816 6.22295 11.5146 5.92875 11.4254 5.65718C11.3361 5.40824 11.2469 5.1593 11.1353 4.95562C11.0907 4.84247 11.046 4.70668 11.0014 4.61616C10.9344 4.50301 10.8675 4.43511 10.8229 4.36722C10.5774 4.54827 10.2427 4.66142 9.841 4.75195C9.46165 4.84247 9.01534 4.93299 8.61367 4.95562H8.45746ZM3.65969 8.25973H0.914923C0.914923 8.64445 0.981869 9.07444 1.09344 9.59495C1.20502 10.1381 1.42817 10.636 1.67364 11.1791C1.78522 11.4507 1.91911 11.7222 2.053 11.9938C2.2092 12.2428 2.38773 12.5143 2.56625 12.7633C2.70014 12.6727 2.83403 12.6048 2.94561 12.537C3.0795 12.4691 3.2357 12.3785 3.3696 12.3106C3.5258 12.2428 3.68201 12.1749 3.86053 12.0843C4.01674 12.0164 4.21757 11.9259 4.41841 11.8354C4.23989 11.2696 4.03905 10.7265 3.90516 10.1155C3.74895 9.52705 3.65969 8.93865 3.65969 8.28236V8.25973ZM7.52022 10.9075V8.25973H4.41841C4.41841 8.44077 4.44073 8.71234 4.48536 8.98391C4.50767 9.25548 4.57462 9.54968 4.61925 9.84388C4.70851 10.1607 4.77545 10.4775 4.86471 10.7491C4.95397 11.0207 5.04324 11.247 5.1325 11.4507C5.53417 11.2923 5.93584 11.1791 6.20363 11.1112C6.49372 11.0207 6.76151 10.9528 7.02929 10.9302H7.27476C7.36402 10.9075 7.45328 10.9075 7.52022 10.9075ZM8.45746 8.25973V10.8849C8.61367 10.9075 8.79219 10.9302 8.97071 10.9528C9.17155 10.9754 9.41702 11.0207 9.61785 11.066L9.95258 11.1338C10.0642 11.1791 10.198 11.2017 10.3096 11.2244C10.4435 11.2696 10.5774 11.2923 10.7113 11.3375C10.8229 11.3828 10.9344 11.4054 11.0237 11.4507C11.3138 10.7039 11.4923 10.0928 11.6039 9.57232C11.7155 9.07444 11.7601 8.64445 11.7601 8.28236V8.25973H8.45746ZM15.0628 8.28236V8.25973H12.4965V8.39551C12.4742 8.8255 12.4073 9.32338 12.318 9.84388C12.2287 10.3418 12.0279 10.9302 11.7601 11.6544C12.1172 11.8354 12.4519 12.0164 12.7197 12.1975C12.9874 12.3785 13.2329 12.5822 13.4114 12.7633C13.7908 12.3785 14.1255 11.858 14.4156 11.1791C14.7057 10.5228 14.9066 9.84388 15.0181 9.1197C15.0404 8.98391 15.0404 8.84813 15.0628 8.71234V8.28236ZM7.52022 15.1621V11.6317C6.96234 11.7222 6.49372 11.8354 6.13668 11.9259C5.77964 12.0164 5.51186 12.107 5.33333 12.1975C5.46722 12.537 5.60112 12.8312 5.73501 13.1027C5.8689 13.3517 6.0251 13.6232 6.159 13.8495C6.20363 13.9401 6.29289 14.0306 6.35983 14.1437C6.42678 14.2343 6.47141 14.3474 6.53835 14.4379C6.6053 14.5511 6.67225 14.6869 6.73919 14.8227C6.82845 14.9358 6.8954 15.0716 6.98466 15.1621H7.52022ZM8.45746 15.1621H8.97071C9.17155 15.0037 9.37239 14.7774 9.52859 14.5285C9.70711 14.2795 9.90795 13.9853 10.0418 13.7364C10.198 13.4422 10.3543 13.1706 10.4881 12.899C10.622 12.6275 10.7336 12.3785 10.8229 12.1975C10.5774 12.107 10.2427 12.0164 9.90795 11.9259C9.57322 11.8354 9.1046 11.7449 8.45746 11.6544V15.1621ZM12.8759 13.3064V13.2838C12.8312 13.2159 12.742 13.1254 12.675 13.0575C12.6081 12.9896 12.4965 12.899 12.3849 12.8312C12.2957 12.7633 12.1841 12.6954 12.0502 12.6275C11.9163 12.5596 11.7378 12.4691 11.5816 12.3785C11.4923 12.5596 11.3361 12.8764 11.113 13.3064C10.9121 13.7364 10.5551 14.2569 10.1088 14.8227C10.6667 14.7321 11.1576 14.5285 11.6039 14.2569C12.0948 14.008 12.5188 13.6685 12.8759 13.3064ZM4.57462 12.5822V12.5596C4.41841 12.6501 4.17294 12.7633 3.92748 12.8764C3.65969 12.9896 3.3696 13.1254 3.10181 13.3064C3.25802 13.4422 3.41423 13.578 3.54812 13.6685C3.68201 13.7817 3.83821 13.8722 3.97211 13.9627C4.21757 14.1211 4.50767 14.2795 4.79777 14.4153C5.08787 14.5511 5.44491 14.6869 5.89121 14.8227C5.73501 14.6416 5.62343 14.4153 5.51186 14.2343C5.40028 14.0532 5.26639 13.8722 5.15481 13.6911C5.04324 13.5101 4.95397 13.3064 4.86471 13.1254C4.75314 12.9443 4.66388 12.7633 4.57462 12.5822Z" fill="black"/>
</g>
<defs>
<clipPath id="clip0">
<rect width="16" height="16" fill="white"/>
</clipPath>
</defs>
</svg>
